<?xml version="1.0" standalone="no"?>
<!DOCTYPE svg PUBLIC "-//W3C//DTD SVG 1.1//EN" "http://www.w3.org/Graphics/SVG/1.1/DTD/svg11.dtd">
<svg xmlns="http://www.w3.org/2000/svg">
<metadata>Generated by Fontastic.me</metadata>
<defs>
<font id="builder-icon" horiz-adv-x="512">
<font-face font-family="builder-icon" units-per-em="512" ascent="480" descent="-32"/>
<missing-glyph horiz-adv-x="512" />

<glyph glyph-name="counter" unicode="&#75;" d="M503 265l-17 0c-4 120-101 217-221 221l0 17c0 5-4 9-9 9-5 0-9-4-9-9l0-17c-120-4-217-101-221-221l-17 0c-5 0-9-4-9-9 0-5 4-9 9-9l17 0c2-58 26-113 67-154 3-3 9-3 12 0 3 3 3 9 0 12-38 38-60 89-62 142l43 0c4-87 74-157 161-161l0-77c0-5 4-9 9-9 5 0 9 4 9 9l0 77c87 4 157 74 161 161l43 0c-2-53-24-104-62-142-2-2-3-5-2-8 0-3 3-5 6-6 3-1 6 0 8 2 41 41 65 96 67 154l17 0c5 0 9 4 9 9 0 5-4 9-9 9z m-398 142c38 38 89 60 142 62l0-43c-87-4-157-74-161-161l-43 0c2 53 24 104 62 142z m160-304l0 42c0 5-4 9-9 9-5 0-9-4-9-9l0-42c-78 4-140 66-144 144l42 0c5 0 9 4 9 9 0 5-4 9-9 9l-42 0c4 78 66 140 144 144l0-42c0-5 4-9 9-9 5 0 9 4 9 9l0 102c111-4 200-93 204-204l-102 0c-5 0-9-4-9-9 0-5 4-9 9-9l42 0c-4-78-66-140-144-144z m34 196c0 23-19 42-43 42-24 0-43-19-43-42 1-17 8-32 21-43-13-11-20-26-21-43 0-23 19-42 43-42 24 0 43 19 43 42-1 17-8 32-21 43 13 11 20 26 21 43z m-17-86c0-14-12-25-26-25-14 0-26 11-26 25 0 15 13 34 26 34 13 0 26-19 26-34z m-26 52c-13 0-26 19-26 34 0 14 12 25 26 25 14 0 26-11 26-25 0-15-13-34-26-34z"/>
<glyph glyph-name="conversation" unicode="&#76;" d="M346 193c-6 0-10-4-10-10l0-69c0-28-22-50-50-50l-108 0c-5 0-10-4-10-10l0-20-24 24c-1 4-5 6-9 6l-65 0c-28 0-50 22-50 50l0 154c0 28 22 50 50 50l101 0c6 0 10 4 10 10 0 6-4 10-10 10l-101 0c-39 0-70-31-70-70l0-154c0-39 31-70 70-70l60 0 41-41c2-2 4-3 7-3 1 0 3 0 4 1 4 1 6 5 6 9l0 34 98 0c39 0 70 31 70 70l0 69c0 6-4 10-10 10z m21 319l-26 0c-80 0-145-65-145-145 0-80 65-146 145-146l26 0c12 0 25 2 37 5l37-37c2-2 4-3 7-3 1 0 3 0 4 1 4 1 6 5 6 9l0 58c16 12 29 29 38 47 11 20 16 42 16 66 0 80-65 145-145 145z m75-246c-3-1-4-4-4-8l0-38-24 24c-2 2-5 3-8 3-1 0-2 0-2 0-12-4-25-6-37-6l-26 0c-69 0-125 57-125 126 0 69 56 125 125 125l26 0c69 0 125-56 125-125 0-40-18-77-50-101z m-43 137c-1 21-18 37-39 39-12 1-23-3-32-11-9-8-14-20-14-31 0-6 5-10 10-10 6 0 10 4 10 10 0 6 3 12 8 16 4 4 10 6 16 6 11-1 20-10 21-21 1-11-6-21-17-23-9-2-15-10-15-19l0-24c0-5 4-10 10-10 5 0 10 5 10 10l0 23c20 5 33 24 32 45z m-35-100c-2 2-5 3-7 3-3 0-5-1-7-3-2-2-3-5-3-7 0-3 1-6 3-7 2-2 4-3 7-3 2 0 5 1 7 3 2 1 3 4 3 7 0 2-1 5-3 7z m-89-101l-211 0c-6 0-10-4-10-10 0-6 4-10 10-10l211 0c6 0 10 4 10 10 0 6-4 10-10 10z m7-59c-2 2-4 3-7 3-3 0-5-1-7-3-2-2-3-4-3-7 0-3 1-5 3-7 2-2 4-3 7-3 3 0 5 1 7 3 2 2 3 4 3 7 0 3-1 5-3 7z m-46 3l-172 0c-6 0-10-4-10-10 0-6 4-10 10-10l172 0c5 0 10 4 10 10 0 6-5 10-10 10z m-26 112l-146 0c-6 0-10-4-10-10 0-6 4-10 10-10l146 0c6 0 10 4 10 10 0 6-4 10-10 10z"/>
<glyph glyph-name="timeline" unicode="&#77;" d="M503 503l-170 0c-5 0-9-3-9-8l0-26-44 0c-3 8-8 13-15 16l0 18c0 5-4 9-9 9-5 0-9-4-9-9l0-18c-10-4-17-13-17-24 0-11 7-21 17-24l0-89c-7-2-12-8-15-15l-44 0 0 60c0 4-4 8-9 8l-170 0c-5 0-9-4-9-8l0-137c0-5 4-9 9-9l170 0c5 0 9 4 9 9l0 60 44 0c3-7 8-13 15-16l0-88c-10-4-17-13-17-24 0-11 7-21 17-24l0-89c-7-2-12-8-15-15l-44 0 0 94c0 4-4 8-9 8l-170 0c-5 0-9-4-9-8l0-137c0-5 4-8 9-8l170 0c5 0 9 3 9 8l0 26 44 0c3-8 8-13 15-16l0-18c0-5 4-9 9-9 5 0 9 4 9 9l0 18c10 4 17 13 17 24 0 11-7 21-17 24l0 89c7 2 12 8 15 15l44 0 0-60c0-4 4-8 9-8l170 0c5 0 9 4 9 8l0 137c0 5-4 9-9 9l-170 0c-5 0-9-4-9-9l0-60-44 0c-3 7-8 13-15 16l0 88c10 4 17 13 17 24 0 11-7 21-17 24l0 89c7 2 12 8 15 15l44 0 0-94c0-4 4-8 9-8l170 0c5 0 9 4 9 8l0 137c0 5-4 8-9 8z m-332-238l-154 0 0 119 154 0z m0-239l-154 0 0 119 154 0z m170 221l154 0 0-119-154 0z m-85-204c-5 0-9 3-9 8 0 5 4 9 9 9 5 0 9-4 9-9 0-5-4-8-9-8z m0 136c-5 0-9 4-9 9 0 4 4 8 9 8 5 0 9-4 9-8 0-5-4-9-9-9z m0 137c-5 0-9 4-9 8 0 5 4 9 9 9 5 0 9-4 9-9 0-4-4-8-9-8z m0 136c-5 0-9 4-9 9 0 5 4 8 9 8 5 0 9-3 9-8 0-5-4-9-9-9z m239-85l-154 0 0 119 154 0z"/>
<glyph glyph-name="products" unicode="&#78;" d="M489 50l-20 179c-2 18-12 29-28 29l-70 0 0 133c0 13-10 23-23 23l-52 0c-1 54-45 98-99 98-54 0-98-44-99-98l-52 0c-13 0-23-10-23-23l0-121c0-6 4-10 10-10 6 0 10 4 10 10l0 121c0 2 1 3 3 3l52 0 0-33c-13-5-23-17-23-32 0-19 15-33 33-33 19 0 34 14 34 33 0 15-10 27-24 32l0 33 158 0 0-33c-14-5-23-17-23-32 0-19 15-33 33-33 18 0 33 14 33 33 0 15-10 27-23 32l0 33 52 0c2 0 3-1 3-3l0-133-74 0c-16 0-27-11-29-29l-4-40-133 0c-14 0-26-12-26-26l0-52c0-15 12-26 26-26l122 0-4-35c-1-11 1-22 5-30l-166 0c-14 0-25 11-25 25l0 135c0 5-4 10-10 10-6 0-10-5-10-10l0-135c0-25 20-45 45-45l381 0c16 0 25 6 30 12 8 9 11 22 10 38z m-381 266c-7 0-13 6-13 13 0 7 6 13 13 13 8 0 14-6 14-13 0-7-6-13-14-13z m178 0c-7 0-13 6-13 13 0 7 6 13 13 13 7 0 13-6 13-13 0-7-6-13-13-13z m-89 176c43 0 78-35 79-78l-158 0c1 43 36 78 79 78z m-86-387c-3 0-6 2-6 6l0 52c0 3 3 6 6 6l131 0-7-64z m353-80c-3-3-8-5-15-5l-180 0c-7 0-12 2-15 5-4 5-6 13-5 23l5 45c0 1 0 1 0 1l14 133c2 11 6 11 9 11l164 0c3 0 7 0 8-11l20-179c1-10-1-18-5-23z m-61 191c-5 0-10-5-10-10l0-36c0-19-15-34-34-34-19 0-34 15-34 34l0 36c0 5-5 10-10 10-6 0-10-5-10-10l0-36c0-30 24-54 54-54 30 0 54 24 54 54l0 36c0 5-4 10-10 10z m-370-1c6 0 10 4 10 10 0 5-4 10-10 10-6 0-10-5-10-10l0 0c0-6 4-10 10-10z"/>
<glyph glyph-name="wishlist" unicode="&#79;" d="M210 200c-6 0-10-4-10-10 0-6 4-10 10-10 6 0 10 4 10 10 0 6-4 10-10 10z m0-60c-6 0-10-4-10-10 0-6 4-10 10-10 6 0 10 4 10 10 0 6-4 10-10 10z m172 60l-132 0c-6 0-10-4-10-10 0-6 4-10 10-10l132 0c6 0 10 4 10 10 0 6-4 10-10 10z m0-60l-132 0c-6 0-10-4-10-10 0-6 4-10 10-10l132 0c6 0 10 4 10 10 0 6-4 10-10 10z m-352-113l0-17c0-6 4-10 10-10 6 0 10 4 10 10l0 17 4 5c17 22 26 50 26 78l0 282 10 0c6 0 10-4 10-10l0-92c0-6 4-10 10-10 6 0 10 4 10 10l0 92c0 17-13 30-30 30l-10 0 0 20c0 10-4 19-10 26l0 24c0 17-13 30-30 30-17 0-30-13-30-30l0-24c-6-7-10-16-10-26l0-322c0-28 9-56 26-78z m30 93l-40 0 0 272 40 0z m-40 292l0 20c0 11 9 20 20 20 11 0 20-9 20-20l0-20z m20 80c6 0 10-4 10-10l0-11c-3 1-7 1-10 1-3 0-7 0-10-1l0 11c0 6 4 10 10 10z m20-392c-2-19-9-38-20-53-11 15-18 34-20 53z m452 250l0 50c0 22-18 40-40 40-2 0-282 0-282 0-28 0-50-22-50-50l0-310-30 0c-6 0-10-4-10-10 0-39 31-70 70-70l232 0c29 0 50 25 50 52l0 288 50 0c6 0 10 4 10 10z m-342-330c-24 0-44 17-49 40l231 0 0-10c0-11 4-22 10-30z m262 380l0-348c0-16-12-32-30-32-17 0-30 13-30 30l0 20c0 6-4 10-10 10l-202 0 0 310c0 17 13 30 30 30l247 0c-3-6-5-13-5-20z m60-40l-40 0 0 40c0 11 9 20 20 20 11 0 20-9 20-20z m-221-102c6-5 12-10 18-16 2-1 4-2 7-2 2 0 4 1 6 2 7 6 12 11 18 16 32 27 55 46 55 74 0 27-20 48-45 48-16 0-27-9-34-18-7 9-18 18-35 18-25 0-44-21-44-48 0-28 23-47 54-74z m-10 102c18 0 25-22 25-23 1-4 5-7 10-7l0 0c4 0 8 3 9 7 1 1 7 23 25 23 14 0 25-12 25-28 0-19-18-34-48-59-3-3-7-6-11-10-4 4-8 7-12 10-29 25-47 40-47 59 0 16 10 28 24 28z"/>
<glyph glyph-name="reveal" unicode="&#80;" d="M324 182c78 0 142 63 142 142 0 78-64 141-142 141-79 0-142-63-142-141 0-79 63-142 142-142z m0 263c67 0 122-54 122-121 0-68-55-122-122-122-68 0-122 54-122 122 0 67 54 121 122 121z m-2-313c105 0 190 85 190 190 0 105-85 190-190 190-105 0-190-85-190-190 0-40 12-77 33-107l-31-31-4 4c-4 4-10 4-14 0l-101-101c-10-10-15-22-15-36 0-14 5-26 15-36 10-10 22-15 36-15 14 0 26 5 36 15l101 101c2 2 3 4 3 7 0 3-1 5-3 7l-4 4 31 31c30-21 67-33 107-33z m0 360c94 0 170-76 170-170 0-94-76-170-170-170-94 0-170 76-170 170 0 94 76 170 170 170z m-249-463c-6-6-14-9-22-9-8 0-16 3-22 9-12 12-12 32 0 44l94 94 4-4c0 0 0 0 0 0l40-40z m97 119l-22 22 30 29c6-8 13-15 21-21z m119 202c6 0 10 4 10 10 0 7 3 13 8 18 6 5 12 7 19 6 11-1 20-10 22-21 1-10-4-20-13-24-13-8-21-22-21-37l0-14c0-5 4-10 10-10 5 0 10 5 10 10l0 14c0 8 4 15 11 19 16 9 24 26 23 44-3 20-19 37-39 39-13 1-26-3-35-11-9-9-15-21-15-33 0-6 5-10 10-10z m35-91c-3 0-6-1-8-3-1-2-2-4-2-7 0-3 1-5 2-7 2-2 5-3 8-3 2 0 5 1 7 3 1 2 3 4 3 7 0 3-2 5-3 7-2 2-5 3-7 3z"/>
<glyph glyph-name="compare" unicode="&#81;" d="M511 200l0 0-84 183 21 10-8 16-20-10-3 6c-2 4-7 6-11 4-2-1-3-3-4-4l-3-6c-14 7-30 11-46 11l-71 0 0 17 17 0 0 17-15 0 6 24c5 19-7 38-25 43-19 5-38-7-43-26-2-5-2-11 0-17l6-24-15 0 0-17 17 0 0-17-71 0c-16 0-32-4-46-11l-3 6c-2 4-7 6-11 4-2-1-4-3-4-4l-3-6-20 10-8-16 21-10-84-183c-1-1-1-3-1-4 0-33 27-59 60-59l85 0c33 0 60 26 60 59 0 1-1 3-1 4l-84 184c12 6 25 9 39 9l71 0 0-313-29-29-30 0c-24 0-43-19-43-42 0-5 4-9 9-9l238 0c5 0 9 4 9 9 0 23-19 42-43 42l-30 0-29 29 0 313 71 0c14 0 27-3 39-9l-84-184c-1-1-1-3-1-4 0-33 27-59 60-59l85 0c33 0 60 26 60 59 0 1 0 3-1 4z m-366-46l-85 0c-21 0-38 14-42 34l169 0c-4-20-22-34-42-34z m38 51l-161 0 78 171c2-1 3-1 5 0z m59 283c6 8 18 9 26 2 1 0 2-1 2-2 4-4 5-10 4-16l-8-28-20 0-8 28c-1 6 0 12 4 16z m5-78l0 17 18 0 0-17z m18-17l0-308-18 0 0 308z m76-359c11 0 21-7 24-17l-218 0c3 10 13 17 24 17z m-54 17l-62 0 17 17 28 0z m120 325c2-1 3-1 5 0l78-171-161 0z m45-222l-85 0c-20 0-38 14-42 34l169 0c-4-20-21-34-42-34z"/>
<glyph glyph-name="tap" unicode="&#82;" d="M366 186c6 0 10 4 10 10 0 6-4 10-10 10-5 0-10-4-10-10 0-6 5-10 10-10z m-268 6c6-26 16-52 29-75 13-24 30-46 49-65l0 0 0-42c0-6 5-10 10-10l180 0c6 0 10 4 10 10l0 43c26 40 40 87 40 135l0 78c0 22-18 40-40 40-8 0-16-3-22-7-6 16-21 27-38 27-8 0-16-3-22-7-6 16-21 27-38 27-7 0-14-2-20-5l0 91c0 22-18 40-40 40-22 0-40-18-40-40l0-144-27-18c-26-17-38-48-31-78z m42 61l16 11 0-68c0-6 5-10 10-10 6 0 10 4 10 10 0 7 0 230 0 236 0 11 9 20 20 20 11 0 20-9 20-20l0-196c0-6 5-10 10-10 6 0 10 4 10 10l0 70c0 11 9 20 20 20 11 0 20-9 20-20l0-70c0-6 5-10 10-10 6 0 10 4 10 10l0 50c0 11 9 20 20 20 11 0 20-9 20-20l0-50c0-6 5-10 10-10 6 0 10 4 10 10l0 30c0 11 9 20 20 20 11 0 20-9 20-20l0-78c0-45-13-89-38-126-1-2-2-4-2-6l0-36-160 0 0 36c0 3-1 5-3 7-2 2-27 25-48 63-13 22-22 46-28 70-5 22 4 45 23 57z m187-183c5-3 11-2 14 3 17 25 28 52 32 81 1 6-2 11-8 12-5 1-11-3-11-8-5-27-15-52-30-74-3-5-1-11 3-14z m-201 352c6 0 10 4 10 10 0 33 27 60 60 60 33 0 60-27 60-60 0-6 5-10 10-10 6 0 10 4 10 10 0 44-36 80-80 80-44 0-80-36-80-80 0-6 5-10 10-10z"/>
<glyph glyph-name="info" unicode="&#83;" d="M412 376c0-6 4-10 10-10 6 0 10 4 10 10 0 6-4 10-10 10-6 0-10-4-10-10z m40-120c0-13-1-26-4-38-1-5 3-11 8-12 1 0 1 0 2 0 5 0 9 3 10 8 3 14 4 28 4 42 0 31-7 62-20 90-3 5-9 7-14 5-5-3-7-9-4-14 12-25 18-53 18-81z m-146-90l-10 0 0 130c0 6-4 10-10 10l-80 0c-6 0-10-4-10-10l0-40c0-6 4-10 10-10l10 0 0-80-10 0c-6 0-10-4-10-10l0-40c0-6 4-10 10-10l100 0c6 0 10 4 10 10l0 40c0 6-4 10-10 10z m-10-40l-80 0 0 20 10 0c6 0 10 4 10 10l0 100c0 6-4 10-10 10l-10 0 0 20 60 0 0-130c0-6 4-10 10-10l10 0z m-40 200c22 0 40 18 40 40 0 22-18 40-40 40-22 0-40-18-40-40 0-22 18-40 40-40z m0 60c11 0 20-9 20-20 0-11-9-20-20-20-11 0-20 9-20 20 0 11 9 20 20 20z m0 126c-138 0-256-118-256-256 0-47 14-97 36-135l-35-108c-2-3-1-7 2-10 3-3 7-4 10-2l108 35c38-22 88-36 135-36 138 0 256 118 256 256 0 138-118 256-256 256z m0-492c-45 0-93 13-129 36-2 1-5 2-8 1l-93-31 31 93c1 3 0 6-1 8-23 36-36 84-36 129 0 128 108 236 236 236 128 0 236-108 236-236 0-128-108-236-236-236z"/>
<glyph glyph-name="lock" unicode="&#85;" d="M256 222c-21 0-39-17-39-38 0-18 13-33 29-37l0-56c0-5 4-10 10-10 6 0 10 5 10 10l0 56c16 4 29 19 29 37 0 21-18 38-39 38z m0-57c-10 0-18 9-18 19 0 10 8 18 18 18 10 0 18-8 18-18 0-10-8-19-18-19z m136 165l-23 0 0 69c0 62-51 113-113 113-62 0-113-51-113-113l0-69-23 0c-33 0-59-27-59-60l0-210c0-33 26-60 59-60l272 0c33 0 59 27 59 60l0 210c0 33-26 60-59 60z m-229 69c0 51 42 93 93 93 51 0 93-42 93-93l0-69-28 0 0 69c0 36-29 65-65 65-36 0-65-29-65-65l0-69-28 0z m138 0l0-69-90 0 0 69c0 25 20 45 45 45 25 0 45-20 45-45z m130-339c0-22-18-40-39-40l-272 0c-21 0-39 18-39 40l0 210c0 22 18 40 39 40l272 0c21 0 39-18 39-40z m-23 173c-6 0-10-4-10-10l0-89c0-5 4-10 10-10 5 0 10 5 10 10l0 89c0 6-5 10-10 10z m-1 33c-13 0-13-20 0-20 13 0 13 20 0 20z"/>
<glyph glyph-name="image" unicode="&#86;" d="M380 381c-29 0-52-23-52-52 0-28 23-51 52-51 28 0 51 23 51 51 0 29-23 52-51 52z m0-83c-18 0-32 14-32 31 0 18 14 32 32 32 17 0 31-14 31-32 0-17-14-31-31-31z m0-237c0 0 0 1-1 2 0 0 0 1-1 1 0 1-1 1-1 1-1 1-2 1-2 1-1 0-1 1-2 1-1 0-3 0-4 0-1 0-1-1-2-1 0 0-1 0-2-1 0 0-1 0-1-1-1 0-1-1-1-1-1-1-1-2-1-2 0-1-1-1-1-2 0-1 0-1 0-2 0-1 0-1 0-2 0-1 1-1 1-2 0 0 0-1 1-2 0 0 0-1 1-1 0 0 0-1 1-1 0 0 0 0 0 0 1-1 2-1 2-1 1 0 1-1 2-1 1 0 1 0 2 0 1 0 1 0 2 0 1 0 1 1 2 1 0 0 1 0 2 1 0 0 0 0 0 0 1 0 1 1 1 1 1 0 1 1 1 1 1 1 1 2 1 2 0 1 1 1 1 2 0 1 0 1 0 2 0 1 0 1 0 2 0 1-1 1-1 2z m-157 396c0 0-1 1-1 1 0 1-1 1-1 2-1 0-1 1-2 1 0 0-1 1-2 1 0 0-1 0-1 1-2 0-3 0-4 0-1-1-2-1-2-1-1 0-1-1-2-1 0 0-1-1-1-1-1-1-1-1-2-2 0 0 0-1-1-1 0-1 0-2 0-2 0-1 0-2 0-2 0-1 0-2 0-2 0-1 0-2 0-2 1-1 1-1 1-2 1 0 1-1 2-1 0-1 1-1 1-2 1 0 1 0 2-1 0 0 1 0 2 0 0 0 1 0 2 0 0 0 1 0 2 0 0 0 1 0 1 0 1 1 2 1 2 1 1 1 1 1 2 2 0 0 1 1 1 1 0 1 1 1 1 2 0 0 0 1 0 2 1 0 1 1 1 2 0 0 0 1-1 2 0 0 0 1 0 2z m233 6c-6 25-29 44-56 44l-314 0c-47 0-86-39-86-86l0-314c0-31 25-57 56-58 6-25 29-44 56-44l342 0c32 0 58 26 58 58l0 342c0 31-25 57-56 58z m36-400c0-21-17-38-38-38l-342 0c-16 0-30 10-35 24-2 4-3 9-3 14l0 53 115 194c4 6 10 10 17 9 6 0 13-3 16-9l49-91 72-132c2-3 5-5 9-5 1 0 3 0 5 1 4 3 6 9 4 14l-24 42c11 0 21 3 29 10l45 37c7 6 17 6 24 0l3-3 20-18 34-31z m0 98l-34 31-20 15c-13 6-29 4-40-5l-45-38c-5-4-12-6-18-4-6 1-12 5-15 10l-31 58-18 33-32 58c-6 13-19 20-33 20-14 1-27-7-34-19l-98-165 0 250c0 21 17 38 38 38l62 0c5 0 10 4 10 10 0 5-5 10-10 10l-62 0c-32 0-58-26-58-58l0-336c-19 2-34 18-34 38l0 314c0 36 30 66 66 66l314 0c16 0 30-10 35-24l-181 0c-6 0-10-5-10-10 0-6 4-10 10-10l184 0 20 0c19-2 34-18 34-38z"/>
<glyph glyph-name="gradient" unicode="&#87;" d="M436 100c6 0 10 4 10 10 0 6-4 10-10 10-6 0-10-4-10-10 0-6 4-10 10-10z m-336 60c-33 0-60-27-60-60 0-33 27-60 60-60 33 0 60 27 60 60 0 33-27 60-60 60z m0-100c-22 0-40 18-40 40 0 22 18 40 40 40 22 0 40-18 40-40 0-22-18-40-40-40z m402 120l-212 0 144 145c4 4 4 10 0 14l-99 99c-1 2-4 3-7 3-2 0-5-1-7-3l-141-142 0 206c0 6-4 10-10 10l-140 0c-6 0-10-4-10-10l0-342c-13-17-20-38-20-60 0-55 45-100 100-100 22 0 43 7 60 20l342 0c6 0 10 4 10 10l0 140c0 6-4 10-10 10z m-244 166l85-85-71-71-85 85z m-59-229c-3 16-9 30-19 43l0 94 78-78z m-159 163l0 106 120 0 0-106z m0-20l120 0 0-80c-17 13-38 20-60 20-22 0-43-7-60-20z m159-170l61 60 0-110-80 0c11 14 18 32 19 50z m81 70l106 0 0-120-106 0z m48 257l85-85-56-57-85 85z m-168 75l0-86-120 0 0 86z m-140-392c0 44 36 80 80 80 45 0 80-36 80-80 0-44-35-80-80-80-44 0-80 36-80 80z m472-60l-46 0 0 30c0 6-4 10-10 10-6 0-10-4-10-10l0-30-20 0 0 120 86 0z"/>
<glyph glyph-name="team" unicode="&#88;" d="M165 508c-23 0-43-19-43-43 0-23 20-43 43-43 24 0 43 20 43 43 0 24-19 43-43 43z m0-66c-12 0-23 11-23 23 0 13 11 23 23 23 13 0 23-10 23-23 0-12-10-23-23-23z m195 66c-23 0-43-19-43-43 0-23 20-43 43-43 24 0 43 20 43 43 0 24-19 43-43 43z m0-66c-12 0-23 11-23 23 0 13 11 23 23 23 13 0 23-10 23-23 0-12-10-23-23-23z m142-418l-51 0-1 214c0 5-4 10-10 10 0 0 0 0 0 0-5 0-10-5-10-10l1-214-62 0-1 234c0 0 0 1 0 1l0 12c0 10-1 19-4 29 10 6 22 9 34 9 1 0 1 0 1 0 19 0 36-7 50-20 13-13 20-30 20-49l1-44c0-6 4-10 10-10 0 0 0 0 0 0 5 0 10 4 10 10l-1 45c0 23-9 45-26 62-10 9-21 16-33 20 9 9 14 21 14 33-1 27-22 48-48 48 0 0 0 0 0 0-26 0-48-22-48-48 0-13 5-24 14-33 1-1 1-1 1-1-2-1-5-3-7-4-13 22-32 38-56 46 10 10 16 23 16 38 0 29-23 53-52 53-29 0-53-24-53-53 0-16 7-30 18-39-22-9-40-24-52-45-3 2-7 4-10 5 8 9 13 20 13 33 0 27-21 48-48 48-26 0-47-21-47-48 0-13 6-26 15-34-33-14-56-45-56-82l0-44c0-6 5-10 10-10 6 0 10 4 10 10l0 44c0 38 32 69 71 69 12 0 24-3 34-9-3-9-4-19-4-29l0-247-60 0 0 214c0 5-5 10-10 10-6 0-10-5-10-10l0-214-75 0c-6 0-10-5-10-10 0-6 4-10 10-10l492 0c6 0 10 4 10 10 0 5-4 10-10 10z m-106 360c0 0 0 0 0 0 15 0 27-12 28-28 0-7-3-14-9-19-5-5-12-8-19-8 0 0 0 0 0 0-7 0-14 3-20 8-5 5-8 12-8 19 0 15 13 28 28 28z m-264-55c-15 0-27 12-27 27 0 16 12 28 27 28 16 0 28-12 28-28 0-15-12-27-28-27z m132 106c18 0 32-15 32-33 0-18-14-32-32-32-18 0-33 14-33 32 0 18 15 33 33 33z m-53-411l-26 0 0 123c7-6 16-9 26-10z m103 254c-6 0-10-5-10-10l0-244-29 0 0 120c0 6-5 10-10 10-6 0-10-4-10-10l0-120-24 0 0 244c0 5-5 10-10 10-6 0-10-5-10-10l0-111c-15 2-26 14-26 29l0 85c0 10 2 20 6 29 0 0 0 0 0 0 12 30 42 50 75 50 34 0 64-20 76-50 4-9 6-19 6-29l0-85c0-14-10-26-24-28l0 110c0 5-5 10-10 10z m10-254l0 113c9 1 17 5 24 10l1-123z m166 133c0-6-5-10-10-10-6 0-10 4-10 10 0 5 4 10 10 10 5 0 10-5 10-10z m-426 0c0-6-4-10-10-10-5 0-10 4-10 10 0 5 5 10 10 10 6 0 10-5 10-10z"/>
<glyph glyph-name="testimonial" unicode="&#89;" d="M256 235c-35 0-64-29-64-64 0-36 29-64 64-64 35 0 64 28 64 64 0 35-29 64-64 64z m0-107c-24 0-43 19-43 43 0 23 19 42 43 42 24 0 43-19 43-42 0-24-19-43-43-43z m32 0l-64 0c-29 0-53-24-53-53l0-64c0-6 4-11 10-11l150 0c6 0 10 5 10 11l0 64c0 29-24 53-53 53z m32-107l-128 0 0 54c0 17 14 32 32 32l64 0c18 0 32-15 32-32z m107 267c-36 0-64-29-64-64 0-35 28-64 64-64 35 0 64 29 64 64 0 35-29 64-64 64z m0-107c-24 0-43 19-43 43 0 24 19 43 43 43 23 0 42-19 42-43 0-24-19-43-42-43z m32 0l-64 0c-30 0-54-24-54-53l22 0c0 18 14 32 32 32l64 0c17 0 32-14 32-32l0-53-128 0 0-22 138 0c6 0 11 5 11 11l0 64c0 29-24 53-53 53z m-374 107c-35 0-64-29-64-64 0-35 29-64 64-64 36 0 64 29 64 64 0 35-28 64-64 64z m0-107c-23 0-42 19-42 43 0 24 19 43 42 43 24 0 43-19 43-43 0-24-19-43-43-43z m-32-21l64 0c18 0 32-14 32-32l22 0c0 29-24 53-54 53l-64 0c-29 0-53-24-53-53l0-64c0-6 5-11 11-11l138 0 0 22-128 0 0 53c0 18 15 32 32 32z m214 352l-235 0c-18 0-32-14-32-32l0-128c0-18 14-32 32-32l102 0 61-61c2-2 5-3 8-3 1 0 2 0 4 1 4 1 6 5 6 10l0 53 54 0c17 0 32 14 32 32l0 128c0 18-15 32-32 32z m10-160c0-6-4-11-10-11l-64 0c-6 0-11-4-11-10l0-39-46 46c-2 2-5 3-7 3l-107 0c-6 0-11 5-11 11l0 128c0 6 5 11 11 11l235 0c6 0 10-5 10-11l0-128z m203 107l-160 0 0-22 160 0c6 0 11-4 11-10l0-43c0-6-5-11-11-11l-85 0c-4 0-7-1-9-4l-13-17 0 11c0 6-4 10-10 10l-43 0 0-21 32 0 0-32c0-6 5-11 11-11 3 0 6 2 8 5l29 38 80 0c18 0 32 14 32 32l0 43c0 17-14 32-32 32z m-117-43l106 0 0-21-106 0z m-43 0l21 0 0-21-21 0z m-245 32c-18 0-32-14-32-32 0-18 14-32 32-32 17 0 32 14 32 32 0 18-15 32-32 32z m0-43c-6 0-11 5-11 11 0 6 5 11 11 11 6 0 10-5 10-11 0-6-4-11-10-11z m74 43c-17 0-32-14-32-32 0-18 15-32 32-32 18 0 32 14 32 32 0 18-14 32-32 32z m0-43c-6 0-10 5-10 11 0 6 4 11 10 11 6 0 11-5 11-11 0-6-5-11-11-11z m75 43c-18 0-32-14-32-32 0-18 14-32 32-32 18 0 32 14 32 32 0 18-14 32-32 32z m0-43c-6 0-11 5-11 11 0 6 5 11 11 11 6 0 11-5 11-11 0-6-5-11-11-11z"/>
<glyph glyph-name="slider" unicode="&#90;" d="M256 133c-22 0-40-18-40-40 0-23 18-41 40-41 22 0 40 18 40 41 0 22-18 40-40 40z m0-60c-11 0-20 9-20 20 0 11 9 20 20 20 11 0 20-9 20-20 0-11-9-20-20-20z m-141 54c-19 0-34-15-34-34 0-19 15-35 34-35 19 0 34 16 34 35 0 19-15 34-34 34z m0-48c-8 0-14 6-14 14 0 8 6 14 14 14 8 0 14-6 14-14 0-8-6-14-14-14z m282 48c-19 0-34-15-34-34 0-19 15-35 34-35 19 0 34 16 34 35 0 19-15 34-34 34z m0-48c-8 0-14 6-14 14 0 8 6 14 14 14 8 0 14-6 14-14 0-8-6-14-14-14z m-60 231c30 0 54 25 54 55 0 30-24 54-54 54-30 0-55-24-55-54 0-30 25-55 55-55z m0 89c19 0 34-15 34-34 0-19-15-34-34-34-19 0-35 15-35 34 0 19 16 34 35 34z m165-82c5 0 10-4 10-10 0-5-5-10-10-10-6 0-10 5-10 10 0 6 4 10 10 10z m-492-20c-5 0-10 5-10 10 0 6 5 10 10 10 6 0 10-4 10-10 0-5-4-10-10-10z m472 133l-51 0 0 20c0 5-4 10-10 10l-330 0c-6 0-10-5-10-10l0-21-51 0c-16 0-30-13-30-30l0-46c0-5 4-10 9-10 6-1 11 4 11 10l0 46c0 6 5 10 10 10l51 0 0-207-51 0c-5 0-10 4-10 10l0 50c0 6-5 10-11 10-5 0-9-5-9-10l0-50c0-17 14-31 30-31l51 0 0-20c0-5 4-10 10-10l330 0c6 0 10 5 10 10l0 21 51 0c16 0 30 13 30 30l0 50c0 5-4 10-9 10-6 1-11-4-11-10l0-50c0-6-5-10-10-10l-51 0 0 208 51 0c5 0 10-5 10-11l0-46c0-6 5-10 11-10 5 0 9 5 9 10l0 46c0 17-14 31-30 31z m-71 9l0-264-134 126c-17 16-44 16-61 0l-30-28-74 92c-3 3-7 6-11 8l0 66z m-310-92l100-126c9-10 24 2 16 13l-19 23 32 29c9 9 24 9 33 0l123-115-285 0z"/>
<glyph glyph-name="gallery" unicode="&#48;" d="M468 380l-4 0c-3 22-20 40-43 42-2 23-22 42-47 42l-302 0c-40 0-73-33-73-73l0-212c0-25 19-45 43-47 2-24 22-42 46-43 0-4 1-8 2-11 5-18 21-30 41-30l337 0c24 0 43 19 43 42l0 248c0 23-19 42-43 42z m23-42l0-164-44 33c-12 9-28 9-40 0l-55-40-105 108c-12 13-32 14-46 2l-93-82 0 143c0 12 10 22 23 22l337 0c13 0 23-10 23-22z m0-248c0-12-10-22-23-22l-337 0c-11 0-19 6-22 15-1 3-1 5-1 7l0 78 106 94c6 5 14 5 19-1l47-49c0 0 0 0 0 0l95-97c2-2 4-3 7-3 2 0 5 1 7 3 4 4 4 10 0 14l-23 24 53 38c5 4 11 3 16 0l56-42z m-430 47l0 236c0 1 1 2 1 3 1 14 14 26 29 26l122 0c5 0 10 4 10 10 0 5-5 10-10 10l-122 0c-27 0-50-22-50-49l0-221c-12 2-22 13-22 27l0 212c0 29 24 53 53 53l302 0c14 0 25-9 27-22l-108 0c-6 0-10-5-10-10 0-6 4-10 10-10l124 0c13 0 24-9 27-22l-313 0c-24 0-43-19-43-42l0-229c-15 1-27 13-27 28z m326 182c-23 0-42-19-42-42 0-24 19-43 42-43 24 0 43 19 43 43 0 23-19 42-43 42z m0-65c-12 0-22 10-22 23 0 12 10 22 22 22 13 0 23-10 23-22 0-13-10-23-23-23z m-143 154c0 0 0-1 1-2 0 0 0-1 1-1 0-1 1-1 1-1 1-1 1-1 2-1 1-1 1-1 2-1 1 0 1 0 2 0 1 0 1 0 2 0 0 0 1 0 2 1 0 0 1 0 1 1 1 0 1 0 2 1 0 0 1 1 1 1 1 1 1 2 1 2 0 1 1 1 1 2 0 1 0 1 0 2 0 1 0 1 0 2 0 1-1 1-1 2 0 0 0 1-1 2 0 0-1 1-1 1-1 0-1 1-2 1 0 1-1 1-1 1-1 0-2 1-2 1-1 0-3 0-4 0-1 0-1-1-2-1-1 0-1 0-2-1 0 0-1-1-1-1-1 0-1-1-1-1-1-1-1-2-1-2-1-1-1-1-1-2 0-1 0-1 0-2 0-1 0-1 0-2 0-1 0-1 1-2z"/>
<glyph glyph-name="review" unicode="&#49;" d="M215 310c-2 2-4 3-7 3-3 0-5-1-7-3-2-2-3-4-3-7 0-3 1-5 3-7 2-2 4-3 7-3 3 0 5 1 7 3 2 2 3 4 3 7 0 3-1 5-3 7z m161-11c-6 0-11-2-16-5-5 13-17 22-32 22-6 0-12-1-17-4-5 11-17 20-31 20-5 0-10-2-14-3l0 64c0 19-15 34-34 34-19 0-34-15-34-34l0-51c0-6 4-10 10-10 5 0 10 4 10 10l0 51c0 8 6 14 14 14 8 0 14-6 14-14l0-158c0-5 4-10 10-10 6 0 10 5 10 10l0 63c0 7 6 14 14 14 8 0 14-7 14-14l0-63c0-5 5-10 10-10 6 0 10 5 10 10l0 47c0 8 6 14 14 14 8 0 14-6 14-14l0-11c0-1 0-2 0-2 0-2 0-3 0-4l0-30c0-5 5-10 10-10 6 0 10 5 10 10l0 30c0 7 6 14 14 14 8 0 14-7 14-14l0-85c0-22-3-45-10-66l-12-38-34 0c-6 0-10-4-10-10 0-6 4-10 10-10l43 0 0-36-180 0 0 36 54 0c6 0 10 4 10 10 0 6-4 10-10 10l-38 0-33 45c-9 13-16 27-19 42l-19 76c-1 7 2 14 8 17 8 4 17 1 21-6l28-53c2-4 7-6 11-5 5 1 8 5 8 10l0 61c0 6-5 10-10 10-6 0-10-4-10-10l0-21-10 17c-9 17-29 24-47 15-14-8-22-24-18-40l18-76c5-18 12-34 23-49l24-33-1 0c-5 0-10-4-10-10l0-56c0-6 5-10 10-10l200 0c6 0 10 4 10 10l0 56c0 5-3 9-8 10l10 32c8 23 11 48 11 72l0 85c0 18-15 34-34 34z m-79-226c-2 2-4 3-7 3-3 0-5-1-7-3-2-2-3-4-3-7 0-3 1-5 3-7 2-2 4-3 7-3 3 0 5 1 7 3 2 2 3 4 3 7 0 3-1 5-3 7z m-207 439c-50 0-90-40-90-90 0-50 40-90 90-90 50 0 90 40 90 90 0 50-40 90-90 90z m0-160c-39 0-70 31-70 70 0 39 31 70 70 70 39 0 70-31 70-70 0-39-31-70-70-70z m14 70l19 19c4 4 4 10 0 14-4 4-10 4-14 0l-19-19-19 19c-4 4-10 4-14 0-4-4-4-10 0-14l19-19-19-19c-4-4-4-10 0-14 2-2 4-3 7-3 2 0 5 1 7 3l19 19 19-19c2-2 5-3 7-3 3 0 5 1 7 3 4 4 4 10 0 14z m365 33c-4 4-11 4-15 0l-45-45-19 19c-4 4-11 4-15 0-3-4-3-10 0-14l27-26c2-2 4-3 7-3 2 0 5 1 7 3l53 52c3 4 3 11 0 14z m-47 57c-50 0-90-40-90-90 0-50 40-90 90-90 50 0 90 40 90 90 0 50-40 90-90 90z m0-160c-39 0-70 31-70 70 0 39 31 70 70 70 39 0 70-31 70-70 0-39-31-70-70-70z"/>
<glyph glyph-name="content-type" unicode="&#50;" d="M251 79c-1 2-4 3-7 3-2 0-5-1-7-3-2-2-3-4-3-7 0-3 1-5 3-7 2-2 5-3 7-3 3 0 6 1 7 3 2 2 3 5 3 7 0 3-1 5-3 7z m48 92l0 74c0 3-2 6-4 8-3 2-7 3-10 1l-172-69-56 0c-31 0-57-26-57-58 0-31 26-57 57-57l7 0 0-60c0-6 5-10 10-10l41 0c5 0 10 4 10 10l0 55 160-64c1-1 3-1 4-1 2 0 4 1 6 2 2 2 4 5 4 8l0 74c20 4 35 22 35 44 0 21-15 39-35 43z m-194-151l-21 0 0 50 21 0z m0 70l-48 0c-20 0-37 17-37 37 0 21 17 38 37 38l48 0z m174-65l-154 62 0 81 109 44 0-99c0-6 5-10 10-10 6 0 10 4 10 10l0 107 25 10z m20 80l0 46c9-4 15-13 15-23 0-11-6-20-15-23z m130 32l-56 0c-6 0-10-4-10-10 0-5 4-10 10-10l56 0c6 0 10 5 10 10 0 6-4 10-10 10z m-46 74c-4 3-10 3-14 0l-20-20c-4-4-4-10 0-14 2-2 5-3 7-3 3 0 6 1 7 3l20 19c4 4 4 11 0 15z m1-152l-20 20c-4 4-11 4-15 0-3-4-3-10 0-14l21-20c2-2 4-3 7-3 2 0 5 1 7 3 4 4 4 10 0 14z m88 453l-186 0c-22 0-40-18-40-40l0-4-168 0c-13 0-24-11-24-24l0-158c0-13 11-24 24-24l10 0 0-31c0-4 3-7 7-9 1 0 2-1 3-1 3 0 5 1 7 3l38 38 199 0c13 0 24 11 24 24l0 30 106 0c22 0 40 18 40 40l0 116c0 22-18 40-40 40z m-126-226c0-2-2-4-4-4l-203 0c-3 0-5-1-7-3l-24-24 0 17c0 6-4 10-10 10l-20 0c-2 0-4 2-4 4l0 158c0 2 2 4 4 4l168 0 0-92c0-22 18-40 40-40l60 0z m146 70c0-11-9-20-20-20l-186 0c-11 0-20 9-20 20l0 116c0 11 9 20 20 20l186 0c11 0 20-9 20-20z m-73 67l-68 39c-3 2-7 2-10 0-3-2-5-5-5-8l0-80c0-3 2-6 5-8 1-1 3-2 5-2 1 0 3 1 5 2l68 39c3 2 5 5 5 9 0 4-2 7-5 9z m-63-31l0 44 38-22z m-141 15l-100 0c-6 0-10-4-10-10 0-6 4-10 10-10l100 0c5 0 10 4 10 10 0 6-5 10-10 10z m7-59c-2 2-5 3-7 3-3 0-6-1-8-3-1-2-2-4-2-7 0-3 1-5 2-7 2-2 5-3 8-3 2 0 5 1 7 3 1 2 3 4 3 7 0 3-2 5-3 7z m-45 3l-62 0c-6 0-10-4-10-10 0-6 4-10 10-10l62 0c6 0 10 4 10 10 0 6-4 10-10 10z"/>
<glyph glyph-name="icon-box" unicode="&#51;" d="M156 142c-6 0-10-4-10-10 0-6 4-10 10-10 6 0 10 4 10 10 0 6-4 10-10 10z m294 180l59 59c3 2 4 6 3 9-1 4-4 7-7 8l-144 44c-12 41-51 70-95 70-41 0-78-25-93-63l-166-51c-3-1-6-4-7-8-1-3 0-7 3-9l60-61-38-63c-1-3-2-6-1-9 2-3 4-5 7-6l55-18 0-154c0-4 3-8 6-9 34-13 160-60 161-60 2-1 4-1 6-1 0 0 0 1 0 1l180 60c4 1 7 5 7 9l0 158 59 18c3 2 6 4 7 8 1 3 0 7-3 9z m-84 90c0 3 0 5 0 8l117-37-50-50-81 28c9 15 14 33 14 51z m-176 26c11 32 42 54 76 54 37 0 69-25 78-61 1-6 2-12 2-19 0-19-6-36-18-50-15-19-38-30-62-30-26 0-51 13-66 34-9 14-14 30-14 46 0 9 1 18 4 26z m-161-55l138 43c-1-4-1-9-1-14 0-16 4-32 11-46l-98-33z m20-126l31 53 161-54-32-52c-17 5-142 47-160 53z m197-233l-140 53 0 140c110-36 105-35 108-35 3 0 7 2 8 5l24 39z m10 249l-148 49 80 27c19-23 48-37 78-37 28 0 54 11 73 32l65-22z m170-196l-160-53 0 209 35-44c3-3 7-4 11-3l114 36z m-113 130l-40 50 160 54 50-50z m-93-87l-23 8c-5 2-11-1-13-6-2-5 1-11 6-13l22-8c6-2 11 1 13 6 2 5 0 11-5 13z m0-43l-60 23c-6 2-11-1-13-6-2-5 0-11 5-13l60-23c2 0 3 0 4 0 4 0 8 2 9 6 2 5 0 11-5 13z m103 372c-4 4-10 4-14 0l-53-53-13 13c-4 4-10 4-14 0-4-4-4-10 0-14l20-20c4-4 10-4 14 0l60 60c4 4 4 10 0 14z"/>
<glyph glyph-name="split" unicode="&#52;" d="M396 512l-118 0c-12 0-22-10-22-22 0-23 19-42 42-42l28 0-81-82c-13-13-13-34 0-47 12-12 34-12 47 0l19 19c1-3 4-7 7-10 7-7 18-10 28-9 1-6 4-12 9-17 9-10 23-12 35-8 1-5 4-10 8-14 6-6 15-9 23-9 9 0 17 3 24 9l33 33c22 22 34 52 34 83 0 64-52 116-116 116z m67-183l-33-34c-5-4-12-4-17 0-5 5-5 13 0 17 2 2 3 5 3 8 0 3-1 5-3 7-4 5-11 5-15 0l-11-10c-5-5-12-5-17 0-2 2-3 5-3 8 0 3 1 6 3 9l11 10c2 2 3 5 3 8 0 3-1 5-3 7-4 5-11 5-15 0l-16-16c-5-4-12-4-17 0-2 3-4 6-4 9 0 3 1 6 4 8l27 27c4 4 4 11 0 15-5 4-11 4-16 0l-26-27c0 0-1 0-1 0l-40-41c-5-4-13-4-17 0-5 5-5 13 0 17l100 100c3 3 3 8 2 12-2 4-6 6-10 6l-54 0c-12 0-21 9-21 21 0 0 1 1 1 1l118 0c52 0 95-43 95-95 0-26-10-50-28-67z m-231-215c-4 4-9 7-14 8 4 12 2 26-8 35-5 5-11 8-17 9 0 2 0 3 0 5 0 9-3 17-9 23-3 3-7 6-10 7l19 19c13 13 13 34 0 47-13 13-35 13-47 0l-82-81 0 28c0 23-19 42-42 42-12 0-22-10-22-22l0-118c0-64 52-116 116-116 31 0 61 12 83 34l33 33c13 13 13 34 0 47z m-16-32l-33-33c-18-18-41-28-67-28-52 0-95 43-95 95l0 118 1 1c12 0 21-9 21-21l0-54c0-4 2-8 6-10 4-1 9-1 12 3l100 99c4 5 12 5 17 0 4-4 4-12 0-17l-41-40c0-1 0-1-1-1l-26-26c-4-5-4-11 0-15 4-5 11-5 15 0l27 26c4 5 12 5 17 0 2-2 3-5 3-8 0-3-1-6-4-9l-16-16c-2-2-3-5-3-7 0-3 1-6 3-8 5-4 11-4 16 0l10 11c5 4 13 4 17 0 5-5 5-12 0-17l-11-11c-2-2-3-5-3-7 0-3 1-6 3-8 5-4 11-4 16 0 4 5 12 5 16 0 5-5 5-12 0-17z m-66 323c-24 0-43-19-43-42 0-24 19-43 43-43 23 0 42 19 42 43 0 23-19 42-42 42z m0-64c-12 0-22 10-22 22 0 11 10 21 22 21 11 0 21-10 21-21 0-12-10-22-21-22z m-32-42l-33 0 0 32c0 6-4 10-10 10-6 0-11-4-11-10l0-43c0-6 5-11 11-11l43 0c5 0 10 5 10 11 0 6-5 11-10 11z m106 149l-42 0c-6 0-11-5-11-11 0-6 5-10 11-10l32 0 0-32c0-6 4-11 10-11 6 0 11 5 11 11l0 42c0 6-5 11-11 11z m-90-100c-4 4-11 4-15 0l-52-53c-4-4-4-10 0-15 2-2 5-3 8-3 3 0 5 1 7 3l52 52c5 5 5 11 0 16z m98 97c-4 4-11 4-15 0l-52-52c-5-4-5-11 0-15 2-2 4-3 7-3 3 0 6 1 8 3l52 52c4 4 4 11 0 15z"/>
<glyph glyph-name="products-search" unicode="&#53;" d="M311 291c-49 0-88-39-88-88 0-48 39-88 88-88 48 0 88 40 88 88 0 49-40 88-88 88z m0-156c-38 0-68 31-68 68 0 38 30 68 68 68 37 0 68-30 68-68 0-37-31-68-68-68z m192-76l-79 79c11 19 17 42 17 65 0 67-51 122-116 129l0 171c0 6-5 10-10 10l-304 0c-6 0-10-4-10-10l0-304c0-27 22-50 50-50l142 0c20-45 65-76 118-76 23 0 46 6 65 17l79-79c7-6 15-10 24-10 9 0 17 4 24 10 13 13 13 35 0 48z m-452 110c-17 0-30 14-30 30l0 294 284 0 0-160c-69-3-124-60-124-130 0-12 2-23 4-34z m150 34c0 61 49 110 110 110 61 0 110-49 110-110 0-61-49-110-110-110-61 0-110 49-110 110z m288-178c-6-5-14-5-20 0l-77 77c8 6 14 12 20 20l77-77c5-6 5-14 0-20z m-178 223c-6 0-10-4-10-10 0-5 4-10 10-10 14 0 25-11 25-25 0-5 4-10 10-10 5 0 10 5 10 10 0 25-20 45-45 45z m-74 159l0 42c0 6-5 10-10 10-6 0-10-4-10-10l0-42c0-30-24-54-54-54-30 0-54 24-54 54l0 42c0 6-5 10-10 10-6 0-10-4-10-10l0-42c0-41 33-74 74-74 41 0 74 33 74 74z m-186-79c-5 0-10-4-10-10l0-50c0-5 5-10 10-10 6 0 10 5 10 10l0 50c0 6-4 10-10 10z m0-86c-2 0-5-1-7-3-2-2-3-4-3-7 0-3 1-5 3-7 2-2 5-3 7-3 3 0 5 1 7 3 2 2 3 4 3 7 0 3-1 5-3 7-2 2-4 3-7 3z"/>
<glyph glyph-name="block" unicode="&#54;" d="M142 512l-133 0c-5 0-9-4-9-9l0-133c0-5 4-10 9-10l133 0c5 0 10 5 10 10l0 133c0 5-5 9-10 9z m-9-133l-114 0 0 114 114 0z m189 133l-132 0c-6 0-10-4-10-9l0-133c0-5 4-10 10-10l132 0c6 0 10 5 10 10l0 133c0 5-4 9-10 9z m-9-133l-114 0 0 114 114 0z m190 133l-133 0c-5 0-10-4-10-9l0-133c0-5 5-10 10-10l133 0c5 0 9 5 9 10l0 133c0 5-4 9-9 9z m-10-133l-114 0 0 114 114 0z m-351-47l-133 0c-5 0-9-4-9-10l0-132c0-6 4-10 9-10l133 0c5 0 10 4 10 10l0 132c0 6-5 10-10 10z m-9-133l-114 0 0 114 114 0z m189 133l-132 0c-6 0-10-4-10-10l0-132c0-6 4-10 10-10l132 0c6 0 10 4 10 10l0 132c0 6-4 10-10 10z m-9-133l-114 0 0 114 114 0z m190 133l-133 0c-5 0-10-4-10-10l0-132c0-6 5-10 10-10l133 0c5 0 9 4 9 10l0 132c0 6-4 10-9 10z m-10-133l-114 0 0 114 114 0z m-351-47l-133 0c-5 0-9-5-9-10l0-133c0-5 4-9 9-9l133 0c5 0 10 4 10 9l0 133c0 5-5 10-10 10z m-9-133l-114 0 0 114 114 0z m189 133l-132 0c-6 0-10-5-10-10l0-133c0-5 4-9 10-9l132 0c6 0 10 4 10 9l0 133c0 5-4 10-10 10z m-9-133l-114 0 0 114 114 0z m190 133l-133 0c-5 0-10-5-10-10l0-133c0-5 5-9 10-9l133 0c5 0 9 4 9 9l0 133c0 5-4 10-9 10z m-10-133l-114 0 0 114 114 0z"/>
<glyph glyph-name="grid" unicode="&#55;" d="M56 512c-6 0-11-5-11-11l0-490c0-6 5-11 11-11 6 0 11 5 11 11l0 490c0 6-5 11-11 11z m133 0c-6 0-11-5-11-11l0-490c0-6 5-11 11-11 6 0 11 5 11 11l0 490c0 6-5 11-11 11z m134 0c-6 0-11-5-11-11l0-490c0-6 5-11 11-11 6 0 11 5 11 11l0 490c0 6-5 11-11 11z m133 0c-6 0-11-5-11-11l0-490c0-6 5-11 11-11 6 0 11 5 11 11l0 490c0 6-5 11-11 11z m45-445l-490 0c-6 0-11-5-11-11 0-6 5-11 11-11l490 0c6 0 11 5 11 11 0 6-5 11-11 11z m0 133l-490 0c-6 0-11-5-11-11 0-6 5-11 11-11l490 0c6 0 11 5 11 11 0 6-5 11-11 11z m0 134l-490 0c-6 0-11-5-11-11 0-6 5-11 11-11l490 0c6 0 11 5 11 11 0 6-5 11-11 11z m0 133l-490 0c-6 0-11-5-11-11 0-6 5-11 11-11l490 0c6 0 11 5 11 11 0 6-5 11-11 11z"/>
<glyph glyph-name="navigation" unicode="&#56;" d="M256 415c-88 0-160-72-160-160 0-88 72-160 160-160 88 0 160 72 160 160 0 88-72 160-160 160z m52-149c-1 7-4 13-8 19l61 60c18-21 30-49 33-79z m-52-43c-18 0-32 15-32 32 0 18 14 32 32 32 17 0 32-14 32-32 0-17-15-32-32-32z m29 77c-5 3-12 6-19 7l0 86c31-2 58-14 80-33z m-40 7c-7-1-13-4-19-7l-60 60c21 19 49 31 79 33z m-19-96c6-4 12-7 19-8l0-86c-30 3-58 15-79 33z m40-8c7 1 14 4 19 8l61-61c-22-18-49-30-80-33z m-115 142l60-60c-3-6-6-12-7-19l-86 0c2 30 14 58 33 79z m-33-100l86 0c1-7 4-14 7-19l-60-61c-19 22-31 49-33 80z m243-80l-61 61c4 5 7 12 8 19l86 0c-3-31-15-58-33-80z m151 80l0 21-33 0c-3 54-24 102-58 140l23 23-15 15-23-23c-37 33-86 55-140 57l0 33-21 0 0-33c-54-2-102-23-140-57l-23 23-15-15 23-23c-34-38-55-86-57-140l-33 0 0-21 32 0c3-54 25-103 59-140l-24-23 15-15 24 23c37-34 86-55 139-58l0-33 21 0 0 33c54 3 103 24 140 58l23-23 15 15-23 23c34 37 55 86 58 140z m-256-192c-110 0-201 89-203 199l0 0 0 3c0 112 91 203 203 203 111 0 202-91 202-203 0-111-91-202-202-202z"/>
<glyph glyph-name="products-slider" unicode="&#57;" d="M456 427l-55 0c-14 49-59 85-113 85-54 0-99-36-113-85l-69 0-4 12c-5 18-22 30-41 30l-29 0c-6 0-11-4-11-10 0-6 5-11 11-11l29 0c10 0 18-6 21-15l66-228-34-43c-5-6-7-13-7-21 0-19 15-34 34-34l296 0c6 0 11 4 11 10 0 6-5 11-11 11l-296 0c-7 0-13 6-13 13 0 3 1 6 3 8l34 43 209 0c17 0 32 10 39 24l74 159c3 4 4 9 4 14l0 3c0 19-16 35-35 35z m-168 64c53 0 96-43 96-96 0-53-43-96-96-96-53 0-96 43-96 96 0 53 43 96 96 96z m181-102c0-2 0-4-1-5l-74-158c-4-8-11-13-20-13l-206 0-56 192 59 0c0-3 0-7 0-10 0-65 52-118 117-118 65 0 117 53 117 118 0 3 0 7 0 10l51 0c7 0 13-6 13-13l0-3z m-320-304c-23 0-42-19-42-42 0-24 19-43 42-43 24 0 43 19 43 43 0 23-19 42-43 42z m0-64c-11 0-21 10-21 22 0 11 10 21 21 21 12 0 22-10 22-21 0-12-10-22-22-22z m256 64c-23 0-42-19-42-42 0-24 19-43 42-43 24 0 43 19 43 43 0 23-19 42-43 42z m0-64c-11 0-21 10-21 22 0 11 10 21 21 21 12 0 22-10 22-21 0-12-10-22-22-22z m-146 323c2-2 5-3 8-3 2 0 5 1 7 3l75 75c4 4 4 11 0 15-4 4-11 4-15 0l-67-67-25 25c-4 4-11 4-15 0-4-5-4-11 0-16z"/>
<glyph glyph-name="share" unicode="&#33;" d="M427 152c-28 0-53-15-66-37l-111 72c9 18 15 38 15 59 0 21-6 40-15 58l121 80c14-15 34-24 56-24 42 0 76 34 76 76 0 42-34 76-76 76-42 0-76-34-76-76 0-13 3-25 8-35l-120-79c-23 31-60 51-102 51-71 0-128-57-128-127 0-71 57-128 128-128 42 0 79 20 102 52l114-75c-2-6-2-12-2-19 0-42 34-76 76-76 42 0 76 34 76 76 0 42-34 76-76 76z m0 339c30 0 55-25 55-55 0-31-25-56-55-56-31 0-56 25-56 56 0 30 25 55 56 55z m-290-352c-59 0-107 48-107 107 0 59 48 107 107 107 59 0 107-48 107-107 0-59-48-107-107-107z m290-118c-31 0-56 25-56 55 0 31 25 56 56 56 30 0 55-25 55-56 0-30-25-55-55-55z"/>
<glyph glyph-name="picture" unicode="&#34;" d="M492 406l-30 0 0 31c0 12-10 21-21 21l-420 0c-12 0-21-9-21-21l0-311c0-11 9-20 21-20l30 0 0-31c0-12 9-21 21-21l419 0c12 0 21 9 21 21l0 310c1 12-9 21-20 21z m-471 32l420-1 0-212-94 65c-4 2-8 2-12 0l-83-57-94 93c-4 3-10 4-14 0l-123-102z m-1-312l0 71 130 108 94-92c3-3 9-4 13-1l84 57 100-69 0-74c0 0 0 0-1 0z m472-53l-420 1 0 31 369 0c11 0 21 9 21 21l0 260 30-1z m-175 333c-25 0-45-21-45-45 0-25 20-46 45-46 25 0 45 21 45 46 0 24-20 45-45 45z m0-71c-14 0-25 12-25 26 0 13 11 25 25 25 14 0 25-12 25-25 0-14-11-26-25-26z"/>
<glyph glyph-name="play" unicode="&#35;" d="M256 512c-141 0-256-115-256-256 0-141 115-256 256-256 141 0 256 115 256 256 0 141-115 256-256 256z m0-491c-129 0-235 106-235 235 0 129 106 235 235 235 129 0 235-106 235-235 0-129-106-235-235-235z m102 244l-150 96c-3 2-7 2-10 0-4-2-6-5-6-9l0-192c0-4 2-7 6-9 1-1 3-2 5-2 2 0 4 1 5 2l150 96c3 2 5 5 5 9 0 4-2 7-5 9z m-145-85l0 152 119-76z"/>
<glyph glyph-name="sticky" unicode="&#37;" d="M395 0l-342 0c-29 0-53 24-53 53l0 299c0 29 24 53 53 53l150 0c6 0 10-4 10-10 0-6-4-11-10-11l-150 0c-17 0-32-14-32-32l0-299c0-17 15-32 32-32l337 0 101 101 0 230c0 18-15 32-32 32l-150 0c-6 0-10 5-10 11 0 6 4 10 10 10l150 0c29 0 53-24 53-53l0-235c0-3-1-5-3-7l-107-107c-2-2-4-3-7-3z m106 117l1 0z m-106-117c-6 0-11 5-11 11l0 106c0 6 5 11 11 11l106 0c6 0 11-5 11-11 0-6-5-10-11-10l-96 0 0-96c0-6-4-11-10-11z m-139 320c-6 0-11 5-11 11l0 106c0 6 5 11 11 11 6 0 11-5 11-11l0-106c0-6-5-11-11-11z m0 107c-24 0-43 19-43 42 0 24 19 43 43 43 24 0 43-19 43-43 0-23-19-42-43-42z m0 64c-12 0-21-10-21-22 0-11 9-21 21-21 12 0 21 10 21 21 0 12-9 22-21 22z m160-235l-320 0c-6 0-11 5-11 11 0 6 5 10 11 10l320 0c6 0 11-4 11-10 0-6-5-11-11-11z m0-85l-320 0c-6 0-11 4-11 10 0 6 5 11 11 11l320 0c6 0 11-5 11-11 0-6-5-10-11-10z m-85-86l-235 0c-6 0-11 5-11 11 0 6 5 11 11 11l235 0c6 0 10-5 10-11 0-6-4-11-10-11z"/>
<glyph glyph-name="post" unicode="&#38;" d="M176 60c-6 0-10-4-10-10 0-6 4-10 10-10 6 0 10 4 10 10 0 6-4 10-10 10z m333 286c-3 4-6 7-10 10 0 0 0 0 0 0l-83 55 0 31c0 6-4 10-10 10l-48 0-73 51c-17 12-41 12-58 0l-73-51-48 0c-6 0-10-4-10-10l0-31-83-55c0 0 0 0 0 0-5-3-10-10-10-10-1-2-3-9-3-14l0-302c0-16 13-30 30-30l452 0c17 0 30 14 30 30l0 302c0 4-1 9-3 13 0 0 0 0 0 1z m-17-315l-167 140 167 149z m-472 289l167-149-167-140z m182-162l20-19c19-17 49-17 68 0l20 19 164-138-436 0z m284 183l-70-62 0 108z m-247 145c10 8 24 8 34 0l50-34-134 0z m157-54l0-171-120-107c0 0 0 0 0 0-11-10-29-10-40 0 0 0 0 0 0 0l-120 107c0 13 0 163 0 171z m-300-153l-70 62 70 46z m240-219l-120 0c-6 0-10-4-10-10 0-6 4-10 10-10l120 0c6 0 10 4 10 10 0 6-4 10-10 10z m-160 232l160 0c6 0 10 4 10 10 0 6-4 10-10 10l-160 0c-6 0-10-4-10-10 0-6 4-10 10-10z m0 60l160 0c6 0 10 4 10 10 0 6-4 10-10 10l-160 0c-6 0-10-4-10-10 0-6 4-10 10-10z m140-100l-120 0c-6 0-10-4-10-10 0-6 4-10 10-10l120 0c6 0 10 4 10 10 0 6-4 10-10 10z"/>
<glyph glyph-name="price" unicode="&#39;" d="M507 164l-172 297c-4 7-10 12-18 14l-131 36c-4 1-9 1-13 1-1 0-1 0-2 0l-134 0c-17 0-31-10-35-26-3-10-2-21 3-30 6-9 15-15 26-17l48-8-26-27c-6-5-9-13-9-21l0-343c0-22 18-40 40-40l186 0c11 0 22 5 29 13 1 0 1 0 2 0 3-1 6-2 10-2 7 0 14 2 20 6l161 93c9 5 16 14 19 24 2 10 1 21-4 30z m-473 295c-5 1-9 4-12 8-2 4-3 9-1 13 2 7 8 12 16 12l103 0-43-44z m95-7l-3-9-5 1z m141-432l-158 0 0 88c0 6-4 10-10 10-6 0-10-4-10-10l0-88-8 0c-11 0-20 9-20 20l0 343c0 3 1 5 3 7l37 37 17-3-19-73c-2-7-1-16 3-23l171-297c2-2 4-5 6-7-4-3-8-4-12-4z m221 119c-1-5-4-9-9-12l-161-93c-5-3-10-3-15-2-5 1-10 5-12 9l-172 297c-1 3-2 5-1 8l20 75 30-5c1-4 2-8 4-11 5-8 12-14 21-16 3-1 6-1 9-1 5 0 11 1 16 4 8 5 14 12 16 21 3 9 1 18-3 26-5 8-12 13-21 16-9 2-18 1-26-4-6-4-11-9-14-16l-27 5 10 37c2 5 5 10 10 12 3 2 6 3 10 3 1 0 3 0 5-1l76-20c0 0 0 0 0 0l48-84c2-4 5-5 9-5 2 0 3 0 5 1 5 3 6 9 4 14l-39 67 28-8c2-1 4-2 6-5l171-297c3-4 4-10 2-15z m-295 293l-1 0c1 1 1 1 2 2 3 1 5 2 7 2 2 0 3 0 4-1 4-1 7-3 9-6 1-4 2-7 1-11-1-4-3-7-7-8-3-2-7-3-10-2-3 1-5 2-6 4 0 0 0 0 0 0 4 0 9 3 10 8 0 5-3 11-9 12z m236-234c-10 16-31 22-48 13-17-10-23-32-13-48 7-12 18-18 30-18 6 0 12 2 18 5 8 4 14 12 16 21 3 9 1 19-3 27z m-16-22c-1-4-4-7-7-9-7-4-17-2-21 6-4 7-1 16 6 20 2 2 5 2 7 2 2 0 3 0 4 0 4-1 7-4 9-7 2-4 3-8 2-12z m-118 65c-5 8-12 14-21 16-10 2-19 1-27-3-8-5-14-13-16-22-3-9-2-18 3-26 7-12 18-18 31-18 5 0 11 2 17 5 8 4 14 12 16 21 3 9 2 19-3 27z m-16-22c-1-4-3-7-7-9-7-4-16-2-21 6-2 3-2 7-1 11 1 4 3 7 7 9 2 2 5 2 7 2 2 0 3 0 4 0 4-1 8-4 10-7 2-4 2-8 1-12z m48 57c-5 0-10-5-10-10l0-148c0-6 5-10 10-10 6 0 10 4 10 10l0 148c0 5-4 10-10 10z m-221-110c-2 2-4 3-7 3-3 0-5-1-7-3-2-2-3-4-3-7 0-3 1-5 3-7 2-2 4-3 7-3 3 0 5 1 7 3 2 2 3 4 3 7 0 3-1 5-3 7z m238 188c-2 2-5 3-8 3-2 0-5-1-7-3-1-2-3-4-3-7 0-2 2-5 3-7 2-2 5-3 7-3 3 0 6 1 8 3 1 2 2 5 2 7 0 3-1 5-2 7z"/>
<glyph glyph-name="notes" unicode="&#40;" d="M0 426l0-284c0-5 4-10 10-10l45 0c6 0 10 5 10 10 0 6-4 10-10 10l-35 0 0 264 270 0c6 0 10 4 10 10 0 6-4 10-10 10l-280 0c-6 0-10-4-10-10z m457 55c-27 0-49-19-54-45l-33 0c-5 0-10-4-10-10 0-6 5-10 10-10l32 0 0-229c0-5 5-10 10-10 6 0 10 5 10 10 0 20 16 35 35 35 19 0 35-15 35-35 0-19-16-35-35-35 0 0 0 0 0 0 0 0 0 0 0 0l-322 0c-6 0-10-4-10-10 0-5 4-10 10-10l322 0c30 0 55 25 55 55l0 239c0 30-25 55-55 55z m35-251c0 0 0 0 0 0 0 0 0 0 0 0-1 0-1 1-2 1 0 0 0 1-1 1 0 0-1 0-1 1 0 0-1 0-1 0 0 1-1 1-1 1 0 0-1 0-1 1 0 0-1 0-1 0-1 1-1 1-1 1-1 0-1 0-2 1 0 0 0 0 0 0-1 0-1 0-2 1 0 0 0 0-1 0-1 0-1 1-2 1 0 0 0 0 0 0-1 0-2 0-2 1-1 0-1 0-1 0-1 0-1 0-2 0 0 1-1 1-1 1 0 0-1 0-1 0-1 0-1 0-1 0-1 0-2 0-2 1 0 0-1 0-1 0-1 0-1 0-2 0 0 0 0 0-1 0 0 0-1 0-1 0-1 0-1 0-1 0-1 0-2 0-3 0-1 0-2 0-3 0 0 0 0 0 0 0-1 0-2 0-2 0-1 0-1 0-1 0-1 0-1 0-2 0 0 0-1 0-1 0 0-1-1-1-1-1-1 0-1 0-1 0-1 0-2 0-2 0 0 0-1 0-1-1-1 0-1 0-2 0 0 0 0 0 0 0-1-1-2-1-3-1 0 0 0 0 0 0-1 0-1-1-2-1 0 0-1 0-1 0 0-1-1-1-2-1 0 0 0 0 0 0-1-1-1-1-2-1 0 0 0 0-1-1 0 0-1 0-1 0 0-1-1-1-1-1 0 0-1 0-1-1 0 0-1 0-1 0 0-1-1-1-1-1-1 0-1-1-1-1-1 0-1-1-2-1 0 0 0 0 0 0 0 0 0 0 0 0l0 196c0 19 16 35 35 35 19 0 35-16 35-35z m-10-129l-413 0c-2 0-4 0-6-1l-39-24-14 0c-6 0-10-5-10-10 0-6 4-10 10-10l14 0 39-24c2-1 4-2 6-2l413 0c16 0 30 14 30 30l0 11c0 17-14 30-30 30z m-79-51l-332 0-25 16 25 15 332 0z m89 10c0-5-5-10-10-10l-59 0 0 31 59 0c5 0 10-4 10-10z m-407 82c0-5 4-10 10-10 6 0 10 5 10 10 0 6-4 10-10 10-6 0-10-4-10-10z m255 284c0 6-4 10-10 10-5 0-10-4-10-10 0-5 5-10 10-10 6 0 10 5 10 10z"/>
<glyph glyph-name="dynamic" unicode="&#41;" d="M211 64l-158 0c-29 0-53 24-53 53l0 342c0 29 24 53 53 53l256 0c30 0 54-24 54-53l0-153c0-6-5-10-11-10-6 0-11 4-11 10l0 153c0 17-14 32-32 32l-256 0c-17 0-32-15-32-32l0-342c0-17 15-32 32-32l158 0c5 0 10-4 10-10 0-6-5-11-10-11z m77 256l-213 0c-6 0-11 5-11 11 0 6 5 10 11 10l213 0c6 0 11-4 11-10 0-6-5-11-11-11z m-85-85l-128 0c-6 0-11 4-11 10 0 6 5 11 11 11l128 0c6 0 10-5 10-11 0-6-4-10-10-10z m-22 170l-106 0c-6 0-11 5-11 11 0 6 5 11 11 11l106 0c6 0 11-5 11-11 0-6-5-11-11-11z m203-405c-71 0-128 57-128 128 0 6 5 11 11 11 6 0 10-5 10-11 0-59 48-107 107-107 59 0 107 48 107 107 0 59-48 107-107 107-32 0-62-14-82-39-4-5-11-5-15-2-5 4-5 11-2 15 25 30 61 47 99 47 71 0 128-57 128-128 0-71-57-128-128-128z m-53 192l-43 0c-6 0-11 5-11 11l0 42c0 6 5 11 11 11 6 0 11-5 11-11l0-32 32 0c6 0 10-4 10-10 0-6-4-11-10-11z"/>
<glyph glyph-name="reload" unicode="&#42;" d="M107 352l0-192c0-18 14-32 32-32l234 0c18 0 32 14 32 32l0 171c0 17-14 32-32 32l-113 0-18 18c-2 2-5 3-7 3l-96 0c-18 0-32-14-32-32z m141-8c2-2 5-3 8-3l117 0c6 0 11-4 11-10l0-171c0-6-5-11-11-11l-234 0c-6 0-11 5-11 11l0 192c0 6 5 11 11 11l91 0z m8 168c-5 0-9-3-10-7-2-4 0-9 3-12l54-43c4-3 11-3 15 2 3 5 3 11-2 15l-27 21c114-16 202-114 202-232 0-106-72-199-174-226-5-2-9-8-7-13 1-5 5-8 10-8 1 0 2 0 3 0 111 30 189 132 189 247 0 141-115 256-256 256z m7-493l-54 43c-4 3-11 3-15-2-3-5-3-11 2-15l27-21c-114 16-202 114-202 232 0 106 72 199 174 226 5 2 9 8 7 13-1 6-7 9-13 8-111-30-189-132-189-247 0-141 115-256 256-256 5 0 9 3 10 7 2 4 0 9-3 12z"/>
<glyph glyph-name="mask" unicode="&#97;" d="M256 0c117 0 211 95 211 211l0 290c0 6-5 11-11 11-6 0-11-5-11-11 0-19-15-34-33-34l-312 0c-18 0-33 15-33 34 0 6-5 11-11 11-6 0-11-5-11-11l0-290c0-116 94-211 211-211z m-189 456c9-7 21-11 33-11l312 0c12 0 24 4 33 11l0-245c0-104-85-189-189-189-104 0-189 85-189 189z m189-389c80 0 145 65 145 144 0 7-5 12-11 12-7 0-12-5-12-12 0-6-5-11-11-11l-222 0c-6 0-11 5-11 11 0 7-5 12-12 12-6 0-11-5-11-12 0-79 65-144 145-144z m-111 111l222 0c3 0 5 0 7 1-14-52-62-90-118-90-56 0-104 38-118 90 2-1 4-1 7-1z m-23 89l89 0c7 0 12 5 12 11l0 45c0 30-25 55-56 55-31 0-56-25-56-55l0-45c0-6 5-11 11-11z m12 56c0 18 15 33 33 33 18 0 33-15 33-33l0-34-66 0z m167-56l89 0c6 0 11 5 11 11l0 45c0 30-25 55-56 55-31 0-56-25-56-55l0-45c0-6 5-11 12-11z m11 56c0 18 15 33 33 33 18 0 33-15 33-33l0-34-66 0z"/>
<glyph glyph-name="brand" unicode="&#99;" d="M510 296l-82 125c-1 3-5 5-8 5l-328 0c-3 0-6-2-8-5l-82-124c0-1-1-1-1-2-2-3-1-8 1-11l42-47c4-4 10-5 14-1 4 4 5 10 1 14l-27 31 135 0 67-231-76 87c-4 5-10 5-14 1-4-3-5-10-1-14l106-121c1-2 4-3 7-3 3 0 6 1 8 3l112 129c4 4 3 11-1 14-4 4-10 3-14-1l-83-95 68 231 134 0-62-71c-4-4-3-11 1-14 2-2 4-3 6-3 3 0 6 1 8 4l77 87c2 4 3 9 0 12z m-481 5l63 97 64-97z m82 105l127 0-64-97z m145-8l64-97-127 0z m0-351l-69 234 138 0z m82 262l-63 97 126 0z m19-8l63 97 63-97z m-200-116c-26 0-47 21-47 47 0 5-4 10-10 10-5 0-10-5-10-10 0-26-21-47-46-47-6 0-10-4-10-10 0-6 4-10 10-10 25 0 46-21 46-47 0-5 5-10 10-10 6 0 10 5 10 10 0 26 21 47 47 47 6 0 10 4 10 10 0 6-4 10-10 10z m-57-32c-5 9-12 17-21 22 9 5 16 13 21 22 6-9 13-17 22-22-9-5-16-13-22-22z m402 319c-17 0-30 13-30 30 0 5-4 10-10 10-6 0-10-5-10-10 0-17-13-30-30-30-6 0-10-5-10-10 0-6 4-10 10-10 17 0 30-13 30-30 0-6 4-10 10-10 6 0 10 4 10 10 0 17 13 30 30 30 6 0 10 4 10 10 0 5-4 10-10 10z m-40-20c-3 4-6 7-10 10 4 3 7 6 10 10 3-4 6-7 10-10-4-3-7-6-10-10z m-59-275c-2 1-5 3-7 3-3 0-5-2-7-3-2-2-3-5-3-7 0-3 1-6 3-8 2-1 4-2 7-2 2 0 5 1 7 2 2 2 3 5 3 8 0 2-1 5-3 7z"/>
</font>
</defs>
</svg>
